<svg id="Layer_3" height="512" viewBox="0 0 64 64" width="512" xmlns="http://www.w3.org/2000/svg" data-name="Layer 3"><circle cx="8" cy="44" fill="#f2b0ae" r="3"/><circle cx="24" cy="44" fill="#f2b0ae" r="3"/><circle cx="40" cy="44" fill="#f2b0ae" r="3"/><circle cx="56" cy="44" fill="#f2b0ae" r="3"/><circle cx="16" cy="50" fill="#f2b0ae" r="2"/><circle cx="32" cy="50" fill="#f2b0ae" r="2"/><circle cx="48" cy="50" fill="#f2b0ae" r="2"/><path d="m63 27h-1.793a23.445 23.445 0 0 1 -19.207-10 23.445 23.445 0 0 0 -19.207-10h-1.406a101.3 101.3 0 0 0 -16.66 1.379l-3.727.621v22h62z" fill="#f2b0ae"/><g fill="#b1404a"><path d="m1 30h62v2h-62z"/><path d="m56 34a5.787 5.787 0 0 0 -4.121 1.707l-1.172 1.172a3.923 3.923 0 0 1 -5.414 0l-1.172-1.172a5.828 5.828 0 0 0 -8.242 0l-1.172 1.172a3.923 3.923 0 0 1 -5.414 0l-1.172-1.172a5.828 5.828 0 0 0 -8.242 0l-1.172 1.172a3.923 3.923 0 0 1 -5.414 0l-1.172-1.172a5.828 5.828 0 0 0 -8.242 0l-3.586 3.586 1.414 1.414 3.586-3.586a3.923 3.923 0 0 1 5.414 0l1.172 1.172a5.828 5.828 0 0 0 8.242 0l1.172-1.172a3.923 3.923 0 0 1 5.414 0l1.172 1.172a5.828 5.828 0 0 0 8.242 0l1.172-1.172a3.923 3.923 0 0 1 5.414 0l1.172 1.172a5.828 5.828 0 0 0 8.242 0l1.172-1.172a3.923 3.923 0 0 1 5.414 0l3.586 3.586 1.414-1.414-3.586-3.586a5.787 5.787 0 0 0 -4.121-1.707z"/><path d="m8 40a4 4 0 1 0 4 4 4 4 0 0 0 -4-4zm0 6a2 2 0 1 1 2-2 2 2 0 0 1 -2 2z"/><path d="m24 40a4 4 0 1 0 4 4 4 4 0 0 0 -4-4zm0 6a2 2 0 1 1 2-2 2 2 0 0 1 -2 2z"/><path d="m44 44a4 4 0 1 0 -4 4 4 4 0 0 0 4-4zm-4 2a2 2 0 1 1 2-2 2 2 0 0 1 -2 2z"/><path d="m60 44a4 4 0 1 0 -4 4 4 4 0 0 0 4-4zm-4 2a2 2 0 1 1 2-2 2 2 0 0 1 -2 2z"/><path d="m16 46.9a3 3 0 1 0 3 3 3 3 0 0 0 -3-3zm0 4a1 1 0 1 1 1-1 1 1 0 0 1 -1 1z"/><path d="m35 50a3 3 0 1 0 -3 3 3 3 0 0 0 3-3zm-4 0a1 1 0 1 1 1 1 1 1 0 0 1 -1-1z"/><path d="m48 47a3 3 0 1 0 3 3 3 3 0 0 0 -3-3zm0 4a1 1 0 1 1 1-1 1 1 0 0 1 -1 1z"/><circle cx="24" cy="56" r="2"/><circle cx="40" cy="56" r="2"/><circle cx="56" cy="56" r="2"/><circle cx="8" cy="56" r="2"/><path d="m1.165 9.986 3.727-.621a100.581 100.581 0 0 1 16.495-1.365h1.406a22.464 22.464 0 0 1 18.388 9.573 24.461 24.461 0 0 0 20.026 10.427h1.793v-2h-1.793a22.464 22.464 0 0 1 -18.388-9.573 24.461 24.461 0 0 0 -20.026-10.427h-1.406a102.613 102.613 0 0 0 -16.825 1.393l-3.727.621z"/><path d="m20 22a17.471 17.471 0 0 1 -5.527-.9l-.154-.052-.638 1.9.157.053a19.468 19.468 0 0 0 6.162.999z"/><path d="m27.707 12.293a7.777 7.777 0 0 0 -5.536-2.293h-.171v2h.171a5.791 5.791 0 0 1 4.122 1.707z"/><path d="m43.293 24.293a5.791 5.791 0 0 1 -4.122 1.707h-1.171v2h1.171a7.777 7.777 0 0 0 5.536-2.293z"/><path d="m7 12h2v2h-2z"/><path d="m4 26h2v2h-2z"/><path d="m30 19h2v2h-2z"/><path d="m43.752 11.342-1.5 1.316a24.418 24.418 0 0 0 17.365 8.315l-2.32 2.32 1.414 1.414 4-4a1 1 0 0 0 0-1.414l-4-4-1.414 1.414 2.264 2.264a22.422 22.422 0 0 1 -15.809-7.629z"/></g></svg>