<svg id="Capa_1" enable-background="new 0 0 512 512" height="512" viewBox="0 0 512 512" width="512" xmlns="http://www.w3.org/2000/svg"><g><path d="m512 256c0 141.384-114.616 256-256 256-49.275 0-95.293-13.916-134.349-38.042-3.85-2.376-7.629-4.854-11.346-7.434v-.01l-3.441-10.302c-9.185-27.556-30.986-49.06-58.655-57.876l-6.359-2.027c-1.997-3.031-3.932-6.124-5.796-9.247-22.896-38.349-36.054-83.17-36.054-131.062 0-45.619 11.93-88.453 32.85-125.542.225-.389.461-.778.686-1.178.01-.02.021-.041.031-.061.01-.031.021-.051.031-.061s.01-.021.02-.031c.01-.02.031-.051.041-.072 44.093-77.097 127.16-129.055 222.341-129.055 95.211 0 178.258 51.958 222.351 129.075.01.01.02.031.041.061.174.287.348.584.512.881.02.041.051.092.082.133 21.013 37.161 33.014 80.108 33.014 125.85z" fill="#c94d31"/><path d="m512 256c0 141.384-114.616 256-256 256-49.275 0-95.293-13.916-134.349-38.042-3.85-2.376-7.629-4.854-11.346-7.434v-.01l-3.441-10.302c-9.185-27.556-30.986-49.06-58.655-57.876l-6.359-2.027c-1.997-3.031-3.932-6.124-5.796-9.247-22.896-38.349-36.054-83.17-36.054-131.062 0-45.619 11.93-88.453 32.85-125.542.225-.389.461-.778.686-1.178.01-.02.021-.041.031-.061.01-.031.021-.051.031-.061s.01-.021.02-.031c.01-.02.031-.051.041-.072.01-.01.021-.02.031-.031 25.395 44.391 63.693 80.435 109.824 103.014 5.222 2.56 10.598 4.967 16.026 7.168 29.03 11.827 60.723 18.483 93.901 18.791h5.12c33.178-.307 64.871-6.963 93.901-18.791 5.427-2.201 10.803-4.608 16.026-7.168 46.08-22.579 84.429-58.624 109.824-103.014.01.02.021.031.041.051.01.01.02.031.041.061.02.041.041.092.072.143.143.246.287.492.44.738.02.041.051.092.082.133 21.011 37.161 33.012 80.108 33.012 125.85z" fill="#b73520"/><path d="m253.022 302.432c.705-4.691 1.456-25.975 2.036-31.097 1.118-9.877.117-10.445-3.091-19.628-.835-2.39-1.455-3.705-1.455-3.705l-2.557-95.076-12.095-14.633v164.138h17.162z" fill="#ace334"/><path d="m260.061 302.432v-164.151l-12.106 14.646v149.505z" fill="#56c126"/><path d="m332.993 67.884-8.723 18.519c-12.344 26.186-33.584 47.126-59.935 59.091l-16.382 7.438c0-46.968 38.072-85.048 85.04-85.048z" fill="#ace334"/><path d="m247.951 152.933c46.969 0 85.046-38.076 85.046-85.046z" fill="#56c126"/><path d="m247.953 152.932c-46.968 0-85.048-38.079-85.048-85.048l15.348 7.698c26.383 13.227 47.852 34.546 61.276 60.842z" fill="#ace334"/><path d="m247.951 152.933c0-46.969-38.076-85.046-85.046-85.046z" fill="#56c126"/><path d="m332.993 158.801-8.723 18.519c-12.344 26.186-33.584 47.126-59.935 59.091l-16.382 7.438c0-46.969 38.072-85.048 85.04-85.048z" fill="#ace334"/><path d="m247.951 243.849c46.969 0 85.046-38.076 85.046-85.046z" fill="#56c126"/><path d="m247.953 243.849c-46.968 0-85.048-38.079-85.048-85.048l15.348 7.698c26.383 13.227 47.852 34.546 61.276 60.842z" fill="#ace334"/><path d="m247.951 243.849c0-46.969-38.076-85.046-85.046-85.046z" fill="#56c126"/><path d="m257.823 361.492-9.871 19.794-9.411 9.165c-52.429 0-94.935-22.313-94.935-49.848s42.506-49.849 94.935-49.849c3.174 0 6.318.082 9.411.246 17.561 19.19 21.483 47.217 9.871 70.492z" fill="#763229"/><path d="m317.829 313.19-69.878 68.096v-90.286c29.205 1.506 54.528 9.964 69.878 22.19z" fill="#662924"/><path d="m341.893 309.637-56.228 64.573c-22.845 26.235-55.183 42.322-89.897 44.718-14.991 1.034-29.471 5.028-42.68 11.602-11.653 5.796-22.313 13.609-31.437 23.163-1.218 1.259-2.396 2.56-3.553 3.881l-7.793 8.95c-5.745-3.983-11.315-8.192-16.712-12.626-13.384-10.998-25.641-23.337-36.557-36.802h-.01c-5.396-6.656-10.465-13.589-15.176-20.787l8.059-9.247 77.435-88.914c11.192-12.862 27.044-20.746 44.052-21.934l40.663-2.672c2.621-.195 5.059.717 6.902 2.314 1.833 1.598 3.072 3.891 3.246 6.523 1.475 21.279-14.582 39.711-35.86 41.185l-3.441.113c-9.513.665-18.391 5.069-24.658 12.267-8.212 9.431-.922 24.084 11.551 23.214l51.507-3.543c20.551-1.423 39.7-10.947 53.217-26.481l13.752-15.79c6.892-7.915 16.343-12.298 26.04-12.953 9.709-.676 19.673 2.365 27.578 9.246z" fill="#ffc0a4"/></g></svg>