<svg height="512" viewBox="0 0 512 512" width="512" xmlns="http://www.w3.org/2000/svg"><g id="Beauty_Face" data-name="Beauty Face"><g id="Flat"><path d="m504 512h-496a8 8 0 0 1 -8-8v-248a256 256 0 0 1 437.02-181.02 254.331 254.331 0 0 1 74.98 181.02v248a8 8 0 0 1 -8 8z" fill="#ffd740"/><path d="m437.02 74.98a260.554 260.554 0 0 0 -22.835-20.292q1.794 18.412 1.815 37.312c0 209.868-170.132 380-380 380q-18.213 0-36-1.69v33.69a8 8 0 0 0 8 8h496a8 8 0 0 0 8-8v-248a254.331 254.331 0 0 0 -74.98-181.02z" fill="#ffc400"/><path d="m256 512.024a119.047 119.047 0 0 1 -65.709-19.779c-43.015-28.401-94.291-73.022-94.291-124.305v-103.882c0-22.546 9.88-45.731 29.365-68.91a8 8 0 0 1 3.414-2.379c15.068-5.424 30.535-7.74 44.181-9.783 24.899-3.729 35.04-6.128 35.04-14.986v-16a24 24 0 0 1 48 0v77.046a118.567 118.567 0 0 0 89.94 115.193 134.447 134.447 0 0 1 65.1 38.019 8 8 0 0 1 1.9 7.631c-9.435 34.176-40.132 68.614-91.237 102.358a119.083 119.083 0 0 1 -65.703 19.777z" fill="#ffdfd4"/><path d="m411.041 382.258a134.469 134.469 0 0 0 -38.133-28.129 243.861 243.861 0 0 1 -208.908 117.871c-.58 0-1.155-.018-1.733-.022 9.333 7.427 18.864 14.219 28.024 20.267a119.041 119.041 0 0 0 131.417 0c51.1-33.744 81.8-68.182 91.237-102.358a8 8 0 0 0 -1.904-7.629z" fill="#f9d4c7"/><path d="m256 464c-34.969 0-48-24.535-48-40a8 8 0 0 1 3.16-6.37c6.977-5.3 24.248-17.63 33.931-17.63a17.155 17.155 0 0 1 10.909 4.346 17.155 17.155 0 0 1 10.909-4.346c9.683 0 26.954 12.329 33.931 17.63a8 8 0 0 1 3.16 6.37c0 15.465-13.031 40-48 40z" fill="#e56161"/><path d="m252 224q2.005 0 4 .051v-72.051a24 24 0 0 0 -48 0v16c0 8.858-10.141 11.257-35.04 14.986-13.646 2.043-29.113 4.359-44.181 9.783a8 8 0 0 0 -3.414 2.379c-19.485 23.179-29.365 46.364-29.365 68.91v73.242a164.061 164.061 0 0 1 156-113.3z" fill="#f9d4c7"/><path d="m214.905 302.9-.2-.2a7.945 7.945 0 0 0 -8.975-1.531 32.6 32.6 0 0 1 -13.73 2.831c-20.21 0-34.229-13.544-34.343-13.657a8 8 0 0 0 -11.314 0l-15.79 15.79a8.2 8.2 0 0 0 -.606 11.1 8 8 0 0 0 11.71.426l10.888-10.888a73.548 73.548 0 0 0 10.884 6.489l-9.086 9.085a8 8 0 0 0 11.314 11.314l14.759-14.76a62.355 62.355 0 0 0 11.584 1.101 48.111 48.111 0 0 0 20.746-4.423 7.867 7.867 0 0 0 2.159-12.677z" fill="#424242"/><path d="m216 272a7.976 7.976 0 0 1 -5.657-2.343c-7.217-7.218-28.708-12.163-40.918-13.656a68.143 68.143 0 0 0 -29.847 7.154 8 8 0 0 1 -7.156-14.31 84.206 84.206 0 0 1 37.467-8.845 8.047 8.047 0 0 1 .931.054c3.774.443 37.263 4.716 50.837 18.289a8 8 0 0 1 -5.657 13.657z" fill="#c97e67"/><g fill="#f2b200"><path d="m469.708 456a8 8 0 0 1 -7.875-6.652 150.647 150.647 0 0 0 -112.012-120.631 102.591 102.591 0 0 1 -77.821-99.672v-77.045a8 8 0 0 1 16 0v77.045a86.614 86.614 0 0 0 65.7 84.149 166.655 166.655 0 0 1 123.9 133.457 8.008 8.008 0 0 1 -7.9 9.35z"/><path d="m184 160a8 8 0 0 1 -8-8 56.064 56.064 0 0 1 56-56 8 8 0 0 1 0 16 40.045 40.045 0 0 0 -40 40 8 8 0 0 1 -8 8z"/><circle cx="264" cy="104" r="8"/><circle cx="472" cy="488" r="8"/><path d="m440 512a8 8 0 0 1 -8-8v-29.045a118.568 118.568 0 0 0 -89.94-115.194 134.544 134.544 0 0 1 -102.06-130.716v-77.045a8 8 0 0 0 -16 0v16c0 10.945-5.706 18.926-16.958 23.721-8.459 3.6-19.234 5.218-31.71 7.086-42.473 6.358-95.332 14.271-95.332 105.193v63.5a251.286 251.286 0 0 1 -33.054 124.469 8 8 0 0 1 -13.892-7.938 235.256 235.256 0 0 0 30.946-116.531v-63.5c0-45.981 12.532-77.786 38.313-97.232 21.845-16.479 48.906-20.53 70.649-23.785 24.898-3.727 35.038-6.126 35.038-14.983v-16a24 24 0 0 1 48 0v77.045a118.568 118.568 0 0 0 89.94 115.194 134.544 134.544 0 0 1 102.06 130.716v29.045a8 8 0 0 1 -8 8z"/></g><circle cx="88" cy="144" fill="#ffe7a4" r="16"/><circle cx="376" cy="112" fill="#ffe7a4" r="16"/><circle cx="136" cy="376" fill="#fff5f2" r="24"/><circle cx="336" cy="72" fill="#ffe7a4" r="24"/><circle cx="128" cy="112" fill="#ffe7a4" r="8"/><circle cx="64" cy="184" fill="#ffe7a4" r="8"/><path d="m211.16 417.63a8 8 0 0 0 -3.16 6.37 33.074 33.074 0 0 0 1.046 8h93.908a33.074 33.074 0 0 0 1.046-8 8 8 0 0 0 -3.16-6.37c-.643-.488-1.375-1.037-2.179-1.63h-85.322c-.804.593-1.539 1.142-2.179 1.63z" fill="#bf4b4b"/><circle cx="272" cy="448" fill="#f29c9c" r="8"/></g></g></svg>